# xmcd
#
# Track frame offsets: 
#        150
#        16098
#        34004
#        53582
#        79988
#        99416
#        123165
#        146723
#        172799
#        191766
#        212185
#        234151
#        251829
#
# Disc length: 3689 seconds
#
# Revision: 0
# Processed by: cddbd v1.5.2PL0 Copyright (c) Steve Scherf et al.
# Submitted via: ExactAudioCopy v0.99pb5
#
DISCID=a40e670d
DTITLE=Big George Brock - I Got To Keep My Bedroom Door Locked
DYEAR=2011
DGENRE=Blues
TTITLE0=Watch Yourself
TTITLE1=So Many Times
TTITLE2=Let The Good Times Roll
TTITLE3=I Got To Keep My Bedroom Door Locked
TTITLE4=Hold That Cadillac
TTITLE5=Gypsy Woman
TTITLE6=Same Old Thing
TTITLE7=Front Door Man
TTITLE8=Lil Girl You Make Me Feel Good
TTITLE9=Oh Baby
TTITLE10=Got My Mojo Workin'
TTITLE11=Howlin' For My Darling
TTITLE12=Burden Down
EXTD=
EXTT0=
EXTT1=
EXTT2=
EXTT3=
EXTT4=
EXTT5=
EXTT6=
EXTT7=
EXTT8=
EXTT9=
EXTT10=
EXTT11=
EXTT12=
PLAYORDER=
